#N canvas -8 -8 1366 685 12;
#X obj 210 62 inlet;
#X obj 273 516 *~;
#X obj 210 187 t b f;
#X obj 210 322 f;
#X msg 416 438 1 \$1;
#X obj 416 409 f;
#X obj 488 322 delay;
#X obj 488 351 f;
#X obj 273 555 outlet~;
#X msg 607 438 0 \$1;
#X obj 210 158 sel 0;
#X obj 607 380 bng 15 250 50 0 empty empty empty 17 7 0 10 #fcfcfc
#000000 #000000;
#X obj 607 409 f;
#X obj 274 409 f;
#X msg 274 438 0 \$1;
#X obj 210 225 spigot;
#X obj 411 225 spigot;
#X obj 488 438 spigot;
#X obj 210 110 t f f;
#X obj 274 477 line~;
#X obj 488 380 pack f f;
#X msg 488 409 \$1 \$2;
#X obj 479 283 r \$0-att;
#X obj 541 351 r \$0-dec;
#X obj 537 322 r \$0-sus;
#X obj 625 380 r \$0-rel;
#X obj 242 134 s \$0-vel;
#X obj 537 409 r \$0-vel;
#X obj 259 158 r \$0-legato;
#X obj 607 322 r \$0-vel;
#X obj 607 351 sel 0;
#X obj 210 283 delay;
#X obj 411 254 s \$0-on;
#X obj 245 322 s \$0-on;
#X obj 416 283 r \$0-on;
#X obj 259 187 == 0;
#X obj 292 254 r \$0-anticlick;
#N canvas -8 -8 1366 685 help 0;
#X obj 630 150 cnv 15 506 105 empty empty empty 20 12 0 14 #c4fcfc
#404040 0;
#X msg 640 166 set foo;
#X obj 38 174 cnv 15 519 247 empty empty empty 20 12 0 14 #c4c4fc #404040
0;
#X obj 38 71 cnv 15 484 63 empty empty empty 20 12 0 14 #c4c4fc #404040
0;
#X text 35 47 INLET 0:;
#X obj 629 71 cnv 15 135 39 empty empty empty 20 12 0 14 #c4fcfc #404040
0;
#X obj 639 81 sig~;
#X text 626 47 OUTLET 0:;
#X obj 48 87 float;
#X text 627 126 OUTLET 1:;
#X text 35 150 INLET 1:;
#X msg 48 310 legato \$1;
#X msg 48 344 anticlick \$1;
#X msg 48 184 att \$1;
#X msg 48 213 dec \$1;
#X msg 48 247 sus \$1;
#X msg 48 281 rel \$1;
#X msg 48 392 state;
#X text 679 81 envolvente;
#X text 102 184 tiempo de ataque en ms;
#X text 102 213 tiempo de decaimiento en ms;
#X text 101 281 tiempo de relajación en ms;
#X text 102 240 valor de sostenimiento (nuevamente entre 0 y 1 \, de
lo contrario puede producirse distorsión y/o inversión de fase);
#X text 95 392 escribir un mensaje con el estado actual de la abstracción
;
#X text 95 80 velocity (entre 0 y 1 \, a menos que no se tema la distorsión
en caso de valores mayores a 1 y menores a -1 o a la inversión de
fase en caso de valores negativos);
#X text 144 337 hacer o no una rampa de 10 ms hacia 0 antes de volver
a atacar cuando legato esté apagado para evitar clicks (distinto de
cero y 0 respectivamente) (por defecto 1);
#X text 123 303 usar o no legato (distinto de cero y 0 respectivamente)
(por defecto 0);
#X text 701 159 donde foo representa una lista de todos los parámetros
correctamente formateados para ser enviados de vuelta a la abstracción
\, en otras palabras \, conectar esta salida a un mensaje y cuando
la abstracción reciba el mensaje [state( se guardará el estado actual
de la abstracción (tener en cuenta que el mensaje se vaciará antes
de escribir en él);
#X connect 11 0 12 0;
#X connect 12 0 17 0;
#X connect 13 0 14 0;
#X connect 14 0 15 0;
#X connect 15 0 16 0;
#X connect 16 0 11 0;
#X restore 1256 611 pd help;
#X obj 386 526 r \$0-state;
#X obj 386 555 outlet;
#X obj 462 62 inlet;
#N canvas -8 -8 1366 685 route-inlet-messages 0;
#X obj 12 12 inlet;
#X obj 17 570 r \$0-error;
#X obj 17 594 bng 15 250 50 0 empty empty empty 17 7 0 10 #fcfcfc #000000
#000000;
#X msg 344 61 0;
#X obj 317 314 s \$0-error;
#N canvas 676 0 681 676 state 0;
#X obj 66 30 inlet;
#X obj 66 59 t b b;
#X msg 98 88 set;
#X obj 66 166 s \$0-state;
#N canvas 698 271 669 300 global 0;
#X obj 54 60 f;
#X obj 54 7 inlet;
#X obj 54 256 outlet;
#X obj 72 36 r \$0-att;
#X obj 81 83 r \$0-dec;
#X obj 108 112 r \$0-sus;
#X obj 136 141 r \$0-rel;
#X obj 54 170 pack f f f f f f, f 20;
#X obj 163 83 r \$0-legato-r;
#X obj 191 112 r \$0-anticlick-r;
#X msg 54 199 add2 att \$1 \, addcomma \, add2 dec \$2 \, addcomma
\, add2 sus \$3 \, addcomma \, add2 rel \$4 \, addcomma \, add2 legato
\$5 \, addcomma \, add2 anticlick \$6;
#X connect 0 0 7 0;
#X connect 1 0 0 0;
#X connect 3 0 0 1;
#X connect 4 0 7 1;
#X connect 5 0 7 2;
#X connect 6 0 7 3;
#X connect 7 0 10 0;
#X connect 8 0 7 4;
#X connect 9 0 7 5;
#X connect 10 0 2 0;
#X restore 66 127 pd global;
#X connect 0 0 1 0;
#X connect 1 0 4 0;
#X connect 1 1 2 0;
#X connect 2 0 3 0;
#X connect 4 0 3 0;
#X restore 273 285 pd state;
#X msg 379 61 1;
#X obj 344 32 loadbang;
#X obj 12 61 route att dec sus rel legato anticlick state;
#X obj 12 100 s \$0-att;
#X obj 55 124 s \$0-dec;
#X obj 99 100 s \$0-sus;
#X obj 142 124 s \$0-rel;
#X obj 186 100 s \$0-legato-r;
#X obj 229 124 s \$0-anticlick-r;
#X msg 17 614 se recibió un mensaje desconocido;
#X obj 17 643 print adsr~;
#X text 432 23 acá se manipulan los mensajes de control de la abstracción
\; se utiliza el objeto [route] para enviar el valor del mensaje a
su respectivo [send] \, que enviará el valor a donde corresponda;
#X text 100 563 cuando la abstracción reciba un mensaje desconocido
\, se imprimirá un mensaje haciéndolo saber;
#X connect 0 0 8 0;
#X connect 1 0 2 0;
#X connect 2 0 15 0;
#X connect 3 0 13 0;
#X connect 6 0 14 0;
#X connect 7 0 3 0;
#X connect 7 0 6 0;
#X connect 8 0 9 0;
#X connect 8 1 10 0;
#X connect 8 2 11 0;
#X connect 8 3 12 0;
#X connect 8 4 13 0;
#X connect 8 5 14 0;
#X connect 8 6 5 0;
#X connect 8 7 4 0;
#X connect 15 0 16 0;
#X restore 462 86 pd route-inlet-messages;
#X obj 210 86 route float;
#X obj 284 110 s \$0-error;
#X obj 960 212 * 10;
#X obj 960 188 != 0;
#X obj 849 188 != 0;
#X obj 960 236 s \$0-anticlick;
#X obj 849 236 s \$0-legato;
#X obj 849 159 r \$0-legato-r;
#X obj 960 159 r \$0-anticlick-r;
#X text 1022 578 abstracción para generar envolventes adsr \; \; dylan
martin;
#X connect 0 0 42 0;
#X connect 1 0 8 0;
#X connect 2 0 13 0;
#X connect 2 0 15 0;
#X connect 2 0 16 0;
#X connect 2 1 3 1;
#X connect 3 0 1 1;
#X connect 4 0 19 0;
#X connect 5 0 4 0;
#X connect 6 0 7 0;
#X connect 7 0 20 0;
#X connect 9 0 19 0;
#X connect 10 1 2 0;
#X connect 11 0 12 0;
#X connect 12 0 9 0;
#X connect 13 0 14 0;
#X connect 14 0 19 0;
#X connect 15 0 31 0;
#X connect 16 0 32 0;
#X connect 16 0 3 0;
#X connect 17 0 19 0;
#X connect 18 0 10 0;
#X connect 18 1 26 0;
#X connect 19 0 1 0;
#X connect 20 0 21 0;
#X connect 21 0 17 0;
#X connect 22 0 6 1;
#X connect 22 0 5 1;
#X connect 23 0 20 1;
#X connect 24 0 7 1;
#X connect 25 0 12 1;
#X connect 27 0 17 1;
#X connect 28 0 35 0;
#X connect 28 0 16 1;
#X connect 29 0 30 0;
#X connect 30 0 11 0;
#X connect 31 0 3 0;
#X connect 31 0 33 0;
#X connect 34 0 6 0;
#X connect 34 0 5 0;
#X connect 35 0 15 1;
#X connect 36 0 31 1;
#X connect 36 0 13 1;
#X connect 38 0 39 0;
#X connect 40 0 41 0;
#X connect 42 0 18 0;
#X connect 42 1 43 0;
#X connect 44 0 47 0;
#X connect 45 0 44 0;
#X connect 46 0 48 0;
#X connect 49 0 46 0;
#X connect 50 0 45 0;
